<svg width="86" height="96" viewBox="0 0 86 96" fill="none" xmlns="http://www.w3.org/2000/svg">
<path fill-rule="evenodd" clip-rule="evenodd" d="M40.334 0.702244C41.146 0.242052 42.0649 0 43 0C43.9351 0 44.854 0.242052 45.666 0.702244L55.0723 6.03531C55.7026 6.37334 56.2585 6.83302 56.7073 7.38732C57.156 7.94163 57.4885 8.57936 57.6852 9.26301C57.8819 9.94667 57.9389 10.6624 57.8527 11.3683C57.7665 12.0741 57.539 12.7557 57.1835 13.373C56.828 13.9902 56.3517 14.5308 55.7825 14.9628C55.2134 15.3948 54.563 15.7095 53.8695 15.8884C53.176 16.0673 52.4534 16.1069 51.7443 16.0047C51.0352 15.9026 50.3538 15.6607 49.7403 15.2935L43 11.475L36.2598 15.2935C35.6462 15.6607 34.9648 15.9026 34.2557 16.0047C33.5466 16.1069 32.824 16.0673 32.1305 15.8884C31.437 15.7095 30.7866 15.3948 30.2175 14.9628C29.6484 14.5308 29.172 13.9902 28.8165 13.373C28.461 12.7557 28.2335 12.0741 28.1473 11.3683C28.0612 10.6624 28.1181 9.94667 28.3148 9.26301C28.5115 8.57936 28.844 7.94163 29.2927 7.38732C29.7415 6.83302 30.2974 6.37334 30.9278 6.03531L40.334 0.702244ZM19.4468 18.6853C20.1534 19.9131 20.3398 21.3691 19.9648 22.7332C19.5899 24.0973 18.6843 25.2578 17.4473 25.9596L16.211 26.6636L17.4473 27.3675C18.0777 27.7056 18.6336 28.1653 19.0823 28.7196C19.531 29.2739 19.8635 29.9116 20.0602 30.5953C20.2569 31.2789 20.3139 31.9947 20.2277 32.7005C20.1416 33.4063 19.914 34.0879 19.5585 34.7052C19.203 35.3225 18.7267 35.863 18.1576 36.295C17.5884 36.727 16.938 37.0417 16.2445 37.2206C15.551 37.3996 14.8285 37.4391 14.1193 37.337C13.4102 37.2348 12.7288 36.993 12.1153 36.6257L10.75 35.8524V37.3297C10.75 38.7441 10.1837 40.1006 9.17572 41.1007C8.16771 42.1009 6.80056 42.6628 5.37502 42.6628C3.94949 42.6628 2.58233 42.1009 1.57433 41.1007C0.566319 40.1006 2.59905e-05 38.7441 2.59905e-05 37.3297V26.6636C-0.00298228 25.7056 0.255207 24.7646 0.747248 23.9402C1.23929 23.1159 1.94686 22.439 2.79502 21.9812L12.1153 16.7014C13.3527 16.0003 14.8202 15.8154 16.195 16.1874C17.5698 16.5594 18.7394 17.4579 19.4468 18.6853ZM66.5533 18.6853C67.2606 17.4579 68.4303 16.5594 69.8051 16.1874C71.1799 15.8154 72.6473 16.0003 73.8848 16.7014L83.1996 21.9812C84.0465 22.441 84.7533 23.1182 85.2459 23.942C85.7386 24.7657 85.999 25.7057 86 26.6636V37.3297C86 38.7441 85.4337 40.1006 84.4257 41.1007C83.4177 42.1009 82.0505 42.6628 80.625 42.6628C79.1995 42.6628 77.8323 42.1009 76.8243 41.1007C75.8163 40.1006 75.25 38.7441 75.25 37.3297V35.8524L73.8848 36.6257C73.2712 36.993 72.5898 37.2348 71.8807 37.337C71.1716 37.4391 70.449 37.3996 69.7555 37.2206C69.062 37.0417 68.4116 36.727 67.8425 36.295C67.2733 35.863 66.797 35.3225 66.4415 34.7052C66.086 34.0879 65.8585 33.4063 65.7723 32.7005C65.6861 31.9947 65.7431 31.2789 65.9398 30.5953C66.1365 29.9116 66.469 29.2739 66.9177 28.7196C67.3665 28.1653 67.9224 27.7056 68.5527 27.3675L69.789 26.6636L68.5527 25.9596C67.3157 25.2578 66.4101 24.0973 66.0352 22.7332C65.6602 21.3691 65.8466 19.9131 66.5533 18.6853ZM28.9283 40.0176C29.6356 38.7902 30.8053 37.8917 32.1801 37.5197C33.5549 37.1476 35.0223 37.3325 36.2598 38.0337L43 41.8521L49.7403 38.0337C50.3538 37.6664 51.0352 37.4246 51.7443 37.3224C52.4534 37.2203 53.176 37.2598 53.8695 37.4388C54.563 37.6177 55.2134 37.9324 55.7825 38.3644C56.3517 38.7964 56.828 39.3369 57.1835 39.9542C57.539 40.5715 57.7665 41.2531 57.8527 41.9589C57.9389 42.6647 57.8819 43.3805 57.6852 44.0642C57.4885 44.7478 57.156 45.3855 56.7073 45.9398C56.2585 46.4941 55.7026 46.9538 55.0723 47.2919L48.375 51.089V58.6619C48.375 60.0764 47.8087 61.4328 46.8007 62.433C45.7927 63.4331 44.4255 63.995 43 63.995C41.5745 63.995 40.2073 63.4331 39.1993 62.433C38.1913 61.4328 37.625 60.0764 37.625 58.6619V51.089L30.9278 47.2919C29.6907 46.59 28.7852 45.4295 28.4102 44.0654C28.0353 42.7014 28.2216 41.2454 28.9283 40.0176ZM5.37502 53.3289C6.80056 53.3289 8.16771 53.8908 9.17572 54.8909C10.1837 55.891 10.75 57.2475 10.75 58.6619V66.2349L17.4473 70.032C18.0777 70.3701 18.6336 70.8298 19.0823 71.384C19.531 71.9384 19.8635 72.5761 20.0602 73.2597C20.2569 73.9434 20.3139 74.6592 20.2277 75.365C20.1416 76.0708 19.914 76.7524 19.5585 77.3697C19.203 77.987 18.7267 78.5275 18.1576 78.9595C17.5884 79.3915 16.938 79.7062 16.2445 79.8851C15.551 80.0641 14.8285 80.1036 14.1193 80.0015C13.4102 79.8993 12.7288 79.6575 12.1153 79.2902L2.70902 73.9572C1.88636 73.4909 1.20252 72.8172 0.726785 72.0043C0.251052 71.1913 0.000331581 70.2681 2.59905e-05 69.3281V58.6619C2.59905e-05 57.2475 0.566319 55.891 1.57433 54.8909C2.58233 53.8908 3.94949 53.3289 5.37502 53.3289ZM80.625 53.3289C82.0505 53.3289 83.4177 53.8908 84.4257 54.8909C85.4337 55.891 86 57.2475 86 58.6619V69.3281C85.9997 70.2681 85.749 71.1913 85.2732 72.0043C84.7975 72.8172 84.1137 73.4909 83.291 73.9572L73.8848 79.2902C73.2712 79.6575 72.5898 79.8993 71.8807 80.0015C71.1716 80.1036 70.449 80.0641 69.7555 79.8851C69.062 79.7062 68.4116 79.3915 67.8425 78.9595C67.2733 78.5275 66.797 77.987 66.4415 77.3697C66.086 76.7524 65.8585 76.0708 65.7723 75.365C65.6861 74.6592 65.7431 73.9434 65.9398 73.2597C66.1365 72.5761 66.469 71.9384 66.9177 71.384C67.3665 70.8298 67.9224 70.3701 68.5527 70.032L75.25 66.2349V58.6619C75.25 57.2475 75.8163 55.891 76.8243 54.8909C77.8323 53.8908 79.1995 53.3289 80.625 53.3289ZM28.9283 82.6821C29.6356 81.4546 30.8053 80.5562 32.1801 80.1841C33.5549 79.8121 35.0223 79.997 36.2598 80.6982L37.625 81.4715V79.9942C37.625 78.5798 38.1913 77.2233 39.1993 76.2232C40.2073 75.223 41.5745 74.6611 43 74.6611C44.4255 74.6611 45.7927 75.223 46.8007 76.2232C47.8087 77.2233 48.375 78.5798 48.375 79.9942V81.4715L49.7403 80.6982C50.3538 80.3309 51.0352 80.0891 51.7443 79.9869C52.4534 79.8848 53.176 79.9243 53.8695 80.1032C54.563 80.2822 55.2134 80.5969 55.7825 81.0289C56.3517 81.4609 56.828 82.0014 57.1835 82.6187C57.539 83.236 57.7665 83.9176 57.8527 84.6234C57.9389 85.3292 57.8819 86.045 57.6852 86.7286C57.4885 87.4123 57.156 88.05 56.7073 88.6043C56.2585 89.1586 55.7026 89.6183 55.0723 89.9564L45.7466 95.2467C44.9166 95.7397 43.9674 96 43 96C42.0327 96 41.0834 95.7397 40.2534 95.2467L30.9278 89.9564C29.6907 89.2545 28.7852 88.094 28.4102 86.7299C28.0353 85.3658 28.2216 83.9099 28.9283 82.6821Z" fill="black"/>
</svg>
