<svg width="76" height="23" viewBox="0 0 76 23" fill="none" xmlns="http://www.w3.org/2000/svg">
<path d="M20.2235 20L20.7633 18.3416H23.3876L23.9274 20H25.5751L23.068 12.7273H21.0865L18.5758 20H20.2235ZM21.1539 17.1413L22.0488 14.3892H22.1056L23.0005 17.1413H21.1539ZM26.4221 20H27.9348V16.7259C27.9348 16.1222 28.3184 15.7209 28.8226 15.7209C29.3198 15.7209 29.6536 16.0618 29.6536 16.598V20H31.1202V16.669C31.1202 16.1044 31.4434 15.7209 31.9938 15.7209C32.4767 15.7209 32.839 16.0227 32.839 16.63V20H34.3482V16.3317C34.3482 15.1491 33.6451 14.4744 32.6294 14.4744C31.8304 14.4744 31.209 14.8828 30.9853 15.5078H30.9284C30.7544 14.8757 30.1969 14.4744 29.4476 14.4744C28.7125 14.4744 28.155 14.8651 27.9277 15.5078H27.8638V14.5455H26.4221V20ZM35.5716 20H37.063V19.1264H37.1305C37.34 19.581 37.7981 20.0888 38.6788 20.0888C39.9217 20.0888 40.8912 19.1051 40.8912 17.2798C40.8912 15.4048 39.8791 14.4744 38.6824 14.4744C37.7697 14.4744 37.3329 15.0178 37.1305 15.4616H37.0843V12.7273H35.5716V20ZM37.0524 17.2727C37.0524 16.2997 37.4643 15.6783 38.1994 15.6783C38.9487 15.6783 39.3464 16.3281 39.3464 17.2727C39.3464 18.2244 38.9416 18.8849 38.1994 18.8849C37.4714 18.8849 37.0524 18.2457 37.0524 17.2727ZM42.649 22.0455C43.7747 22.0455 44.3713 21.4702 44.6802 20.5895L46.8002 14.5526L45.1987 14.5455L44.0588 18.5511H44.002L42.8727 14.5455H41.2818L43.2385 20.1562L43.1497 20.3871C42.9508 20.8984 42.5708 20.9233 42.0382 20.7599L41.6973 21.8892C41.9139 21.9815 42.2654 22.0455 42.649 22.0455ZM48.9735 20.103C49.7797 20.103 50.3017 19.7514 50.568 19.2436H50.6106V20H52.0453V16.321C52.0453 15.0213 50.9444 14.4744 49.7299 14.4744C48.4231 14.4744 47.5637 15.0994 47.3542 16.0938L48.7534 16.2074C48.8564 15.8452 49.1795 15.5788 49.7228 15.5788C50.2377 15.5788 50.5325 15.8381 50.5325 16.2855V16.3068C50.5325 16.6584 50.1596 16.7045 49.2115 16.7969C48.1319 16.8963 47.1625 17.2585 47.1625 18.4766C47.1625 19.5561 47.9331 20.103 48.9735 20.103ZM49.4068 19.0589C48.9416 19.0589 48.6078 18.8423 48.6078 18.4268C48.6078 18.0007 48.9593 17.7912 49.492 17.7166C49.8223 17.6705 50.362 17.5923 50.5431 17.4716V18.0504C50.5431 18.6222 50.0708 19.0589 49.4068 19.0589ZM53.2189 20H54.7317V16.9141C54.7317 16.2429 55.2218 15.7812 55.8894 15.7812C56.0989 15.7812 56.3865 15.8168 56.5286 15.8629V14.5206C56.3936 14.4886 56.2054 14.4673 56.0527 14.4673C55.4419 14.4673 54.9412 14.8224 54.7424 15.4972H54.6855V14.5455H53.2189V20ZM59.9173 20C62.1332 20 63.4755 18.6293 63.4755 16.3565C63.4755 14.0909 62.1332 12.7273 59.9386 12.7273H57.3391V20H59.9173ZM58.8768 18.6825V14.0447H59.8569C61.2205 14.0447 61.9414 14.7408 61.9414 16.3565C61.9414 17.9794 61.2205 18.6825 59.8533 18.6825H58.8768ZM67.0719 20.1065C68.4213 20.1065 69.3304 19.4496 69.5435 18.4375L68.1444 18.3452C67.9917 18.7607 67.601 18.9773 67.0968 18.9773C66.3404 18.9773 65.861 18.4766 65.861 17.6634V17.6598H69.5755V17.2443C69.5755 15.3906 68.4533 14.4744 67.0115 14.4744C65.4064 14.4744 64.3659 15.6143 64.3659 17.2976C64.3659 19.027 65.3922 20.1065 67.0719 20.1065ZM65.861 16.7223C65.8929 16.1009 66.3652 15.6037 67.0364 15.6037C67.6934 15.6037 68.1479 16.0724 68.1515 16.7223H65.861ZM75.4917 14.5455H73.8901L72.7608 18.4482H72.704L71.5712 14.5455H69.9732L71.8801 20H73.5847L75.4917 14.5455Z" fill="black"/>
<path d="M7 8C3.1402 8 0 11.1402 0 15C0 18.8598 3.1402 22 7 22C10.8598 22 14 18.8598 14 15C14 11.1402 10.8598 8 7 8ZM2.4871 14.3735L4.2084 13.5132L3.1115 12.7824L3.8878 11.6176L5.9878 13.0176C6.1957 13.1555 6.314 13.3942 6.2979 13.6441C6.2825 13.8926 6.1355 14.1152 5.9122 14.2265L3.1122 15.6265L2.4871 14.3735ZM7 19.2C4.2 19.2 3.5 16.4 3.5 16.4H10.5C10.5 16.4 9.8 19.2 7 19.2ZM10.8871 15.6265L8.0871 14.2265C7.8645 14.1152 7.7175 13.8926 7.7014 13.6441C7.686 13.3949 7.8036 13.1562 8.0115 13.0176L10.1115 11.6176L10.8878 12.7824L9.7916 13.5132L11.5129 14.3735L10.8871 15.6265Z" fill="black"/>
<path d="M20.3192 8.048C20.1646 8.048 20.0392 8.00267 19.9432 7.912C19.8526 7.816 19.8072 7.688 19.8072 7.528V2.848C19.8072 2.69333 19.8499 2.57333 19.9352 2.488C20.0259 2.40267 20.1486 2.36 20.3032 2.36H22.2712C22.8739 2.36 23.3432 2.512 23.6792 2.816C24.0152 3.11467 24.1832 3.536 24.1832 4.08C24.1832 4.624 24.0152 5.048 23.6792 5.352C23.3432 5.656 22.8739 5.808 22.2712 5.808H20.8392V7.528C20.8392 7.688 20.7912 7.816 20.6952 7.912C20.6046 8.00267 20.4792 8.048 20.3192 8.048ZM22.1432 5.016C22.8526 5.016 23.2072 4.70667 23.2072 4.088C23.2072 3.46933 22.8526 3.16 22.1432 3.16H20.8392V5.016H22.1432ZM26.6438 8.064C26.2438 8.064 25.8918 7.98133 25.5878 7.816C25.2892 7.65067 25.0572 7.41333 24.8918 7.104C24.7265 6.79467 24.6438 6.43467 24.6438 6.024C24.6438 5.61333 24.7265 5.256 24.8918 4.952C25.0572 4.64267 25.2892 4.40533 25.5878 4.24C25.8918 4.07467 26.2438 3.992 26.6438 3.992C27.0438 3.992 27.3932 4.07467 27.6918 4.24C27.9958 4.40533 28.2278 4.64267 28.3878 4.952C28.5532 5.256 28.6358 5.61333 28.6358 6.024C28.6358 6.43467 28.5532 6.79467 28.3878 7.104C28.2278 7.41333 27.9958 7.65067 27.6918 7.816C27.3932 7.98133 27.0438 8.064 26.6438 8.064ZM26.6358 7.288C26.9612 7.288 27.2092 7.18133 27.3798 6.968C27.5505 6.75467 27.6358 6.44 27.6358 6.024C27.6358 5.61333 27.5505 5.30133 27.3798 5.088C27.2092 4.86933 26.9638 4.76 26.6438 4.76C26.3238 4.76 26.0758 4.86933 25.8998 5.088C25.7292 5.30133 25.6438 5.61333 25.6438 6.024C25.6438 6.44 25.7292 6.75467 25.8998 6.968C26.0705 7.18133 26.3158 7.288 26.6358 7.288ZM34.6869 4.304C34.7242 4.208 34.7776 4.136 34.8469 4.088C34.9216 4.04 35.0016 4.016 35.0869 4.016C35.2096 4.016 35.3189 4.05867 35.4149 4.144C35.5162 4.224 35.5669 4.32533 35.5669 4.448C35.5669 4.51733 35.5536 4.57867 35.5269 4.632L34.2069 7.728C34.1642 7.82933 34.0976 7.90667 34.0069 7.96C33.9216 8.01333 33.8256 8.04 33.7189 8.04C33.6176 8.04 33.5216 8.01333 33.4309 7.96C33.3456 7.90667 33.2816 7.82933 33.2389 7.728L32.2869 5.44L31.3669 7.728C31.3242 7.82933 31.2576 7.90667 31.1669 7.96C31.0816 8.01333 30.9856 8.04 30.8789 8.04C30.7776 8.04 30.6816 8.01333 30.5909 7.96C30.5002 7.90667 30.4336 7.82933 30.3909 7.728L29.0789 4.632C29.0522 4.56267 29.0389 4.504 29.0389 4.456C29.0389 4.33333 29.0922 4.22933 29.1989 4.144C29.3056 4.05333 29.4229 4.008 29.5509 4.008C29.6416 4.008 29.7242 4.032 29.7989 4.08C29.8736 4.128 29.9296 4.2 29.9669 4.296L30.9109 6.736L31.8789 4.32C31.9216 4.21867 31.9829 4.144 32.0629 4.096C32.1429 4.04267 32.2309 4.016 32.3269 4.016C32.4229 4.016 32.5109 4.04267 32.5909 4.096C32.6709 4.144 32.7322 4.21867 32.7749 4.32L33.7509 6.744L34.6869 4.304ZM39.284 6.928C39.3746 6.928 39.4466 6.96267 39.5 7.032C39.5586 7.10133 39.588 7.19467 39.588 7.312C39.588 7.47733 39.4893 7.616 39.292 7.728C39.1106 7.82933 38.9053 7.912 38.676 7.976C38.4466 8.03467 38.228 8.064 38.02 8.064C37.3906 8.064 36.892 7.88267 36.524 7.52C36.156 7.15733 35.972 6.66133 35.972 6.032C35.972 5.632 36.052 5.27733 36.212 4.968C36.372 4.65867 36.596 4.41867 36.884 4.248C37.1773 4.07733 37.508 3.992 37.876 3.992C38.228 3.992 38.5346 4.06933 38.796 4.224C39.0573 4.37867 39.26 4.59733 39.404 4.88C39.548 5.16267 39.62 5.496 39.62 5.88C39.62 6.10933 39.5186 6.224 39.316 6.224H36.956C36.988 6.592 37.092 6.864 37.268 7.04C37.444 7.21067 37.7 7.296 38.036 7.296C38.2066 7.296 38.356 7.27467 38.484 7.232C38.6173 7.18933 38.7666 7.13067 38.932 7.056C39.092 6.97067 39.2093 6.928 39.284 6.928ZM37.9 4.696C37.628 4.696 37.4093 4.78133 37.244 4.952C37.084 5.12267 36.988 5.368 36.956 5.688H38.764C38.7533 5.36267 38.6733 5.11733 38.524 4.952C38.3746 4.78133 38.1666 4.696 37.9 4.696ZM42.622 4.008C42.7606 3.99733 42.87 4.02667 42.95 4.096C43.03 4.16533 43.07 4.26933 43.07 4.408C43.07 4.552 43.0353 4.65867 42.966 4.728C42.8966 4.79733 42.7713 4.84267 42.59 4.864L42.35 4.888C42.0353 4.92 41.8033 5.02667 41.654 5.208C41.51 5.38933 41.438 5.616 41.438 5.888V7.568C41.438 7.72267 41.39 7.84267 41.294 7.928C41.198 8.008 41.078 8.048 40.934 8.048C40.79 8.048 40.67 8.008 40.574 7.928C40.4833 7.84267 40.438 7.72267 40.438 7.568V4.472C40.438 4.32267 40.4833 4.208 40.574 4.128C40.67 4.048 40.7873 4.008 40.926 4.008C41.0646 4.008 41.1766 4.048 41.262 4.128C41.3473 4.20267 41.39 4.312 41.39 4.456V4.776C41.4913 4.54133 41.6406 4.36 41.838 4.232C42.0406 4.104 42.2646 4.032 42.51 4.016L42.622 4.008ZM46.5183 6.928C46.609 6.928 46.681 6.96267 46.7343 7.032C46.793 7.10133 46.8223 7.19467 46.8223 7.312C46.8223 7.47733 46.7237 7.616 46.5263 7.728C46.345 7.82933 46.1397 7.912 45.9103 7.976C45.681 8.03467 45.4623 8.064 45.2543 8.064C44.625 8.064 44.1263 7.88267 43.7583 7.52C43.3903 7.15733 43.2063 6.66133 43.2063 6.032C43.2063 5.632 43.2863 5.27733 43.4463 4.968C43.6063 4.65867 43.8303 4.41867 44.1183 4.248C44.4117 4.07733 44.7423 3.992 45.1103 3.992C45.4623 3.992 45.769 4.06933 46.0303 4.224C46.2917 4.37867 46.4943 4.59733 46.6383 4.88C46.7823 5.16267 46.8543 5.496 46.8543 5.88C46.8543 6.10933 46.753 6.224 46.5503 6.224H44.1903C44.2223 6.592 44.3263 6.864 44.5023 7.04C44.6783 7.21067 44.9343 7.296 45.2703 7.296C45.441 7.296 45.5903 7.27467 45.7183 7.232C45.8517 7.18933 46.001 7.13067 46.1663 7.056C46.3263 6.97067 46.4437 6.928 46.5183 6.928ZM45.1343 4.696C44.8623 4.696 44.6437 4.78133 44.4783 4.952C44.3183 5.12267 44.2223 5.368 44.1903 5.688H45.9983C45.9877 5.36267 45.9077 5.11733 45.7583 4.952C45.609 4.78133 45.401 4.696 45.1343 4.696ZM50.9363 2.32C51.0857 2.32 51.2083 2.36267 51.3043 2.448C51.4003 2.53333 51.4483 2.64533 51.4483 2.784V7.568C51.4483 7.712 51.403 7.82667 51.3123 7.912C51.2217 7.99733 51.1017 8.04 50.9523 8.04C50.803 8.04 50.683 7.99733 50.5923 7.912C50.5017 7.82667 50.4563 7.712 50.4563 7.568V7.368C50.339 7.58667 50.1683 7.75733 49.9443 7.88C49.7257 8.00267 49.475 8.064 49.1923 8.064C48.8563 8.064 48.555 7.97867 48.2883 7.808C48.027 7.63733 47.8217 7.39733 47.6723 7.088C47.5283 6.77333 47.4563 6.41333 47.4563 6.008C47.4563 5.60267 47.5283 5.248 47.6723 4.944C47.8217 4.64 48.027 4.40533 48.2883 4.24C48.5497 4.07467 48.851 3.992 49.1923 3.992C49.475 3.992 49.7257 4.05067 49.9443 4.168C50.163 4.28533 50.331 4.45067 50.4483 4.664V2.768C50.4483 2.63467 50.491 2.528 50.5763 2.448C50.667 2.36267 50.787 2.32 50.9363 2.32ZM49.4563 7.288C49.7763 7.288 50.0217 7.17867 50.1923 6.96C50.3683 6.74133 50.4563 6.42933 50.4563 6.024C50.4563 5.61867 50.3683 5.30933 50.1923 5.096C50.0217 4.87733 49.779 4.768 49.4643 4.768C49.1443 4.768 48.8963 4.87467 48.7203 5.088C48.5443 5.30133 48.4563 5.608 48.4563 6.008C48.4563 6.41333 48.5443 6.728 48.7203 6.952C48.8963 7.176 49.1417 7.288 49.4563 7.288ZM58.2089 5.088C58.5342 5.17867 58.7849 5.344 58.9609 5.584C59.1422 5.824 59.2329 6.11733 59.2329 6.464C59.2329 6.944 59.0596 7.32 58.7129 7.592C58.3716 7.864 57.8996 8 57.2969 8H55.2329C55.0782 8 54.9556 7.95733 54.8649 7.872C54.7796 7.78667 54.7369 7.66667 54.7369 7.512V2.848C54.7369 2.69333 54.7796 2.57333 54.8649 2.488C54.9556 2.40267 55.0782 2.36 55.2329 2.36H57.2169C57.8036 2.36 58.2622 2.49067 58.5929 2.752C58.9289 3.008 59.0969 3.368 59.0969 3.832C59.0969 4.13067 59.0169 4.38933 58.8569 4.608C58.7022 4.82667 58.4862 4.98667 58.2089 5.088ZM55.7449 4.736H57.0489C57.7582 4.736 58.1129 4.472 58.1129 3.944C58.1129 3.67733 58.0249 3.48 57.8489 3.352C57.6729 3.224 57.4062 3.16 57.0489 3.16H55.7449V4.736ZM57.1849 7.2C57.5582 7.2 57.8302 7.13333 58.0009 7C58.1716 6.86667 58.2569 6.65867 58.2569 6.376C58.2569 6.09333 58.1689 5.88267 57.9929 5.744C57.8222 5.60533 57.5529 5.536 57.1849 5.536H55.7449V7.2H57.1849ZM62.8378 4.296C62.8805 4.2 62.9365 4.13067 63.0058 4.088C63.0805 4.04 63.1605 4.016 63.2458 4.016C63.3685 4.016 63.4778 4.05867 63.5738 4.144C63.6752 4.224 63.7258 4.32533 63.7258 4.448C63.7258 4.50667 63.7098 4.568 63.6778 4.632L61.4938 9.208C61.4032 9.38933 61.2618 9.48 61.0698 9.48C60.9472 9.48 60.8378 9.44 60.7418 9.36C60.6512 9.28533 60.6058 9.18933 60.6058 9.072C60.6058 9.01333 60.6218 8.94667 60.6538 8.872L61.1978 7.728L59.7098 4.632C59.6832 4.57867 59.6698 4.51733 59.6698 4.448C59.6698 4.32533 59.7205 4.22133 59.8218 4.136C59.9285 4.05067 60.0485 4.008 60.1818 4.008C60.2725 4.008 60.3552 4.032 60.4298 4.08C60.5045 4.12267 60.5632 4.192 60.6058 4.288L61.7258 6.76L62.8378 4.296Z" fill="#828282"/>
</svg>
